<svg xmlns="http://www.w3.org/2000/svg" width="19" height="19.001" viewBox="0 0 19 19.001"><defs><style>.a{fill:#fff;}</style></defs><path class="a" d="M1162.253,42.3c-1.708-1.485-3.288-3.579-3.288-8.809a5.465,5.465,0,1,0-10.93,0c0,5.234-1.58,7.327-3.289,8.81a2.179,2.179,0,0,0-.746,1.639.623.623,0,0,0,.622.625h5.9a3.04,3.04,0,0,0,5.958,0h5.9a.623.623,0,0,0,.622-.625A2.167,2.167,0,0,0,1162.253,42.3Zm-8.753,3.45a1.8,1.8,0,0,1-1.689-1.185h3.379A1.8,1.8,0,0,1,1153.5,45.751Zm-8.012-2.434a.9.9,0,0,1,.072-.07c2.606-2.261,3.718-5.179,3.718-9.754a4.222,4.222,0,1,1,8.443,0c0,4.571,1.112,7.488,3.719,9.755a.9.9,0,0,1,.072.07Z" transform="translate(-1144 -28)"/></svg>