<svg xmlns="http://www.w3.org/2000/svg" width="18" height="18" viewBox="0 0 18 18"><defs><style>.a{fill:#567cff;}</style></defs><path class="a" d="M1216.11,589a2.111,2.111,0,0,1-2.11-2.109V574.516a2.111,2.111,0,0,1,2.11-2.11h.843V571h1.406v1.407h9.282V571h1.406v1.407h.844a2.112,2.112,0,0,1,2.11,2.11v12.375a2.112,2.112,0,0,1-2.11,2.109Zm-.7-2.109a.7.7,0,0,0,.7.7h13.781a.7.7,0,0,0,.7-.7v-9.282h-15.187Zm0-12.375V576.2h15.188v-1.687a.7.7,0,0,0-.7-.7h-.844v1.407h-1.406v-1.407h-9.282v1.407h-1.406v-1.407h-.843A.7.7,0,0,0,1215.406,574.516Zm9.7,11.6V584.71h1.41v1.409Zm-2.81,0V584.71h1.41v1.409Zm-2.82,0V584.71h1.409v1.409Zm-2.81,0V584.71h1.409v1.409Zm11.25-2.81V581.9h1.409v1.409Zm-2.811,0V581.9h1.41v1.409Zm-2.81,0V581.9h1.41v1.409Zm-2.82,0V581.9h1.409v1.409Zm-2.81,0V581.9h1.409v1.409Zm11.25-2.81v-1.41h1.409v1.41Zm-2.811,0v-1.41h1.41v1.41Zm-2.81,0v-1.41h1.41v1.41Zm-2.82,0v-1.41h1.409v1.41Zm-2.81,0v-1.41h1.409v1.41Z" transform="translate(-1214 -571)"/></svg>