<svg xmlns="http://www.w3.org/2000/svg" width="14.686" height="14.612" viewBox="0 0 14.686 14.612"><defs><style>.a{fill:#333233;}</style></defs><g transform="translate(0 -0.261)"><path class="a" d="M13.554,46.919a.366.366,0,0,0-.366.366v3.247a1.1,1.1,0,0,1-1.1,1.1H1.829a1.1,1.1,0,0,1-1.1-1.1V41a1.1,1.1,0,0,1,1.1-1.1H5.076a.366.366,0,1,0,0-.732H1.829A1.831,1.831,0,0,0,0,41v9.531a1.831,1.831,0,0,0,1.829,1.829H12.091a1.831,1.831,0,0,0,1.829-1.829V47.285A.366.366,0,0,0,13.554,46.919Zm0,0" transform="translate(0 -37.488)"/><path class="a" d="M118.008.743a1.646,1.646,0,0,0-2.328,0l-6.525,6.525a.366.366,0,0,0-.094.161l-.858,3.1a.366.366,0,0,0,.45.45l3.1-.858a.366.366,0,0,0,.161-.094L118.438,3.5a1.648,1.648,0,0,0,0-2.328Zm-8.056,6.763,5.34-5.341,1.722,1.722-5.341,5.341Zm-.344.69,1.376,1.376-1.9.527Zm8.312-5.214-.388.388L115.81,1.648l.388-.388a.914.914,0,0,1,1.293,0l.429.429A.916.916,0,0,1,117.92,2.982Zm0,0" transform="translate(-104.233 0)"/></g></svg>