<svg xmlns="http://www.w3.org/2000/svg" width="18" height="18" viewBox="0 0 18 18"><defs><style>.a{fill:#a7b8c9;}</style></defs><path class="a" d="M631.11,740a2.111,2.111,0,0,1-2.11-2.11V725.515a2.111,2.111,0,0,1,2.11-2.109h.843V722h1.407v1.407h9.281V722h1.407v1.407h.843a2.112,2.112,0,0,1,2.11,2.109V737.89a2.112,2.112,0,0,1-2.11,2.11Zm-.7-2.11a.7.7,0,0,0,.7.7h13.781a.7.7,0,0,0,.7-.7v-9.281H630.406Zm0-12.375V727.2h15.188v-1.687a.7.7,0,0,0-.7-.7h-.843v1.407h-1.407v-1.407H633.36v1.407h-1.407v-1.407h-.843A.7.7,0,0,0,630.406,725.515Zm9.7,11.6V735.71h1.41v1.409Zm-2.81,0V735.71h1.41v1.409Zm-2.82,0V735.71h1.409v1.409Zm-2.81,0V735.71h1.409v1.409Zm11.25-2.81V732.9h1.409v1.41Zm-2.811,0V732.9h1.41v1.41Zm-2.81,0V732.9h1.41v1.41Zm-2.82,0V732.9h1.409v1.41Zm-2.81,0V732.9h1.409v1.41Zm11.25-2.81v-1.41h1.409v1.41Zm-2.811,0v-1.41h1.41v1.41Zm-2.81,0v-1.41h1.41v1.41Zm-2.82,0v-1.41h1.409v1.41Zm-2.81,0v-1.41h1.409v1.41Z" transform="translate(-629 -722)"/></svg>