<svg xmlns="http://www.w3.org/2000/svg" width="18" height="16" viewBox="0 0 18 16"><defs><style>.a{fill:#fff;}</style></defs><path class="a" d="M337.621,41.528h1.466v5.846a.629.629,0,0,0,.628.626h4.294a.629.629,0,0,0,.628-.626v-4.28h2.618v4.28a.629.629,0,0,0,.628.626h4.084a.629.629,0,0,0,.628-.626V41.528h1.78a.623.623,0,0,0,.44-1.065l-8.19-8.278a.627.627,0,0,0-.88-.011l-8.556,8.278a.626.626,0,0,0-.147.689A.613.613,0,0,0,337.621,41.528Zm8.546-8.017,6.7,6.764h-.9a.629.629,0,0,0-.628.626v5.846h-2.827v-4.28a.629.629,0,0,0-.628-.626H344.01a.629.629,0,0,0-.628.626v4.28h-3.037V40.9a.629.629,0,0,0-.628-.626h-.545Z" transform="translate(-337 -32)"/></svg>