<svg xmlns="http://www.w3.org/2000/svg" width="19" height="19" viewBox="0 0 19 19"><defs><style>.a{fill:#fff;}</style></defs><path class="a" d="M1074.742,47a.742.742,0,0,1-.742-.742V37.5a9.5,9.5,0,1,1,9.5,9.5Zm.743-9.5v8.015h8.015a8.016,8.016,0,1,0-8.015-8.015Zm6.741,4.233a.994.994,0,0,1,.984-1,1,1,0,0,1,0,1.992A.994.994,0,0,1,1082.226,41.733Zm.259-2.756a2.365,2.365,0,0,1,.867-1.966c.427-.363,1.151-.763,1.151-1.462,0-.6-.517-.88-1.165-.88-1.319,0-1.035,1-1.733,1a.742.742,0,0,1-.776-.737c0-.7.8-1.733,2.548-1.733,1.656,0,2.756.918,2.756,2.134a3.309,3.309,0,0,1-1.449,2.367,1.625,1.625,0,0,0-.724,1.617c0,.246-.13.53-.763.53C1082.666,39.844,1082.485,39.65,1082.485,38.977Z" transform="translate(-1074 -28)"/></svg>