<svg xmlns="http://www.w3.org/2000/svg" width="19" height="19" viewBox="0 0 19 19"><defs><style>.a{fill:#fff;}</style></defs><path class="a" d="M9.5,19A9.5,9.5,0,1,1,19,9.5,9.511,9.511,0,0,1,9.5,19Zm0-17.915A8.414,8.414,0,1,0,17.914,9.5,8.424,8.424,0,0,0,9.5,1.085Z"/><g transform="translate(5.17 8.951)"><path class="a" d="M16.63,15.737H9.066a.548.548,0,1,1,0-1.1H16.63a.548.548,0,0,1,0,1.1Z" transform="translate(-8.518 -14.641)"/></g><g transform="translate(8.952 5.169)"><path class="a" d="M15.189,17.178a.548.548,0,0,1-.548-.548V9.066a.548.548,0,1,1,1.1,0V16.63A.547.547,0,0,1,15.189,17.178Z" transform="translate(-14.641 -8.518)"/></g></svg>