<svg xmlns="http://www.w3.org/2000/svg" width="14.103" height="14.103" viewBox="0 0 14.103 14.103"><defs><style>.a{fill:#333233;}</style></defs><g transform="translate(301 -95)"><g transform="translate(-301 95)"><path class="a" d="M3.623,13H1.672a.56.56,0,0,1-.441-.21.576.576,0,0,1-.117-.483,6.087,6.087,0,0,1,5.8-4.82l.14,0,.142,0a6.034,6.034,0,0,1,1.99.383.551.551,0,1,0,.387-1.032q-.137-.051-.275-.1a3.746,3.746,0,1,0-4.484,0A7.164,7.164,0,0,0,.036,12.085,1.674,1.674,0,0,0,1.672,14.1h1.95a.551.551,0,0,0,0-1.1Zm.785-9.255A2.644,2.644,0,1,1,7.181,6.387H6.923A2.648,2.648,0,0,1,4.408,3.746Z" transform="translate(0 0)"/><path class="a" d="M155.66,313.871A1.484,1.484,0,0,0,154.3,313h-1.722a1.459,1.459,0,0,0-1.378.931c-.029.075-.064.17-.1.281H147.5a.551.551,0,0,0-.4.167l-.946.975a.551.551,0,0,0,0,.77l.964.981a.551.551,0,0,0,.393.165h1.79a.551.551,0,0,0,0-1.1h-1.559l-.425-.432.409-.421h3.787a.551.551,0,0,0,.535-.42,4.549,4.549,0,0,1,.181-.567.361.361,0,0,1,.351-.225H154.3a.376.376,0,0,1,.35.219,3.558,3.558,0,0,1,.326,1.4,3.663,3.663,0,0,1-.323,1.429.376.376,0,0,1-.346.226h-1.74a.392.392,0,0,1-.355-.244,3.664,3.664,0,0,1-.171-.545.551.551,0,1,0-1.072.256,4.739,4.739,0,0,0,.224.709,1.486,1.486,0,0,0,1.373.926h1.742a1.477,1.477,0,0,0,1.355-.887,4.769,4.769,0,0,0,.415-1.872A4.664,4.664,0,0,0,155.66,313.871Z" transform="translate(-141.978 -304.378)"/><circle class="a" cx="0.5" cy="0.5" r="0.5" transform="translate(12 11)"/></g></g></svg>