<svg xmlns="http://www.w3.org/2000/svg" width="22.037" height="23.154" viewBox="0 0 22.037 23.154">
  <defs>
    <style>.a{fill:#a7b8c9;stroke:#a7b8ca;stroke-width:0.6px;}</style>
  </defs>
  <g transform="translate(-18.65 24.3)">
    <g transform="translate(18.95 -24)">
      <g transform="translate(0)">
        <path class="a" d="M30.054,4.623h-.58V3.333A3.337,3.337,0,0,0,26.141,0h-7a3.337,3.337,0,0,0-3.333,3.333v1.29h-.528A3.337,3.337,0,0,0,11.95,7.956v5.375a3.337,3.337,0,0,0,3.333,3.333h.524V20.89a1.668,1.668,0,0,0,1.664,1.664H27.805a1.668,1.668,0,0,0,1.664-1.664V16.664h.584a3.337,3.337,0,0,0,3.333-3.333V7.956A3.337,3.337,0,0,0,30.054,4.623ZM17.068,3.333a2.075,2.075,0,0,1,2.071-2.071h6.993A2.075,2.075,0,0,1,28.2,3.333v1.29H17.068ZM28.207,20.9a.405.405,0,0,1-.4.4H17.47a.4.4,0,0,1-.4-.4V13.929H28.207Zm3.917-7.563a2.075,2.075,0,0,1-2.071,2.071h-.58V13.929h.832a.631.631,0,1,0,0-1.262H14.881a.631.631,0,1,0,0,1.262h.93v1.477h-.528a2.075,2.075,0,0,1-2.071-2.071V7.96A2.075,2.075,0,0,1,15.283,5.89H30.054A2.075,2.075,0,0,1,32.124,7.96Z" transform="translate(-11.95)"/>
        <path class="a" d="M141.281,338.662h8.035a.631.631,0,1,0,0-1.262h-8.035a.631.631,0,1,0,0,1.262Z" transform="translate(-134.634 -321.629)"/>
        <path class="a" d="M150.321,392.6h-8.04a.631.631,0,0,0,0,1.262h8.035a.631.631,0,0,0,0-1.262Z" transform="translate(-135.587 -374.249)"/>
        <path class="a" d="M359.962,151.9h-1.281a.631.631,0,1,0,0,1.262h1.281a.631.631,0,1,0,0-1.262Z" transform="translate(-341.872 -144.8)"/>
      </g>
    </g>
  </g>
</svg>
