<svg xmlns="http://www.w3.org/2000/svg" width="16.67" height="15" viewBox="0 0 16.67 15"><defs><style>.a{fill:#567cff;stroke:#567cff;}</style></defs><g transform="translate(0.5 -1.297)"><g transform="translate(0 1.797)"><path class="a" d="M7,15.8a7,7,0,1,1,7-7,.4.4,0,0,1-.8,0,6.2,6.2,0,1,0-.853,3.141.4.4,0,0,1,.69.406A7.033,7.033,0,0,1,7,15.8Z" transform="translate(0 -1.797)"/></g><g transform="translate(10.693 6.077)"><path class="a" d="M26.629,14.412a.4.4,0,0,1-.2-.055l-2.507-1.48a.4.4,0,1,1,.407-.688l2.187,1.291,1.408-2.016a.4.4,0,0,1,.656.458l-1.62,2.32A.4.4,0,0,1,26.629,14.412Z" transform="translate(-23.723 -11.292)"/></g></g></svg>