<svg xmlns="http://www.w3.org/2000/svg" width="19.624" height="18" viewBox="0 0 19.624 18"><defs><style>.a{fill:#333233;}</style></defs><g transform="translate(0 -20.113)"><g transform="translate(0 20.113)"><path class="a" d="M16.987,22.75A9,9,0,0,0,4.18,22.83a.485.485,0,1,0,.694.678,8.029,8.029,0,1,1-2.281,5.6v-.1l.8.8a.486.486,0,0,0,.343.141.493.493,0,0,0,.343-.141.485.485,0,0,0,0-.686L2.456,27.5a.485.485,0,0,0-.686,0L.142,29.125a.485.485,0,0,0,.343.828.493.493,0,0,0,.343-.141l.8-.8v.1a9,9,0,0,0,15.363,6.363,9,9,0,0,0,0-12.727Z" transform="translate(0 -20.113)"/><path class="a" d="M162.652,113.413a2.857,2.857,0,0,0-2.855,2.855v1.377h-.888a.486.486,0,0,0-.485.485v4.833a.486.486,0,0,0,.485.485h7.49a.486.486,0,0,0,.485-.485v-4.829a.486.486,0,0,0-.485-.485h-.888v-1.377A2.864,2.864,0,0,0,162.652,113.413Zm-1.886,2.859a1.886,1.886,0,1,1,3.771,0v1.377h-3.771v-1.377Zm5.148,6.206h-6.521v-3.864h6.521Z" transform="translate(-152.028 -109.646)"/></g></g></svg>