<svg xmlns="http://www.w3.org/2000/svg" width="19.001" height="19" viewBox="0 0 19.001 19"><defs><style>.a{fill:#fff;}</style></defs><path class="a" d="M1012.66,47a1.172,1.172,0,0,1-1.158-.98l-.222-1.334a7.506,7.506,0,0,1-1.255-.516l-1.115.794a1.169,1.169,0,0,1-1.508-.127l-1.183-1.183a1.168,1.168,0,0,1-.127-1.512l.781-1.087a7.39,7.39,0,0,1-.544-1.29l-1.349-.23a1.173,1.173,0,0,1-.981-1.159V36.7a1.172,1.172,0,0,1,.981-1.158l1.318-.222a7.311,7.311,0,0,1,.528-1.3l-.794-1.116a1.174,1.174,0,0,1,.127-1.512l1.186-1.183a1.171,1.171,0,0,1,1.512-.127l1.092.786a7.333,7.333,0,0,1,1.291-.544l.229-1.35a1.173,1.173,0,0,1,1.159-.98h1.671a1.173,1.173,0,0,1,1.159.98l.222,1.318a7.375,7.375,0,0,1,1.341.552l1.1-.787a1.169,1.169,0,0,1,1.508.127l1.183,1.184a1.168,1.168,0,0,1,.127,1.512l-.786,1.1a7.569,7.569,0,0,1,.536,1.294l1.333.227a1.157,1.157,0,0,1,.973,1.158v1.671a1.173,1.173,0,0,1-.98,1.159l-1.334.222a7.438,7.438,0,0,1-.536,1.293l.787,1.1a1.176,1.176,0,0,1-.128,1.513l-1.183,1.183a1.174,1.174,0,0,1-1.512.127l-1.1-.786a7.527,7.527,0,0,1-1.293.535l-.227,1.334a1.172,1.172,0,0,1-1.159.98Zm-2.4-3.913a6.6,6.6,0,0,0,1.627.667.53.53,0,0,1,.392.428l.278,1.667a.1.1,0,0,0,.1.087h1.67a.1.1,0,0,0,.1-.087l.282-1.667a.528.528,0,0,1,.393-.428,6.375,6.375,0,0,0,1.663-.691.536.536,0,0,1,.583.024l1.377.98a.1.1,0,0,0,.06.02.1.1,0,0,0,.075-.032l1.184-1.183a.109.109,0,0,0,.012-.135l-.981-1.382a.538.538,0,0,1-.023-.583,6.341,6.341,0,0,0,.69-1.663.535.535,0,0,1,.429-.393l1.667-.277a.1.1,0,0,0,.087-.1h0V36.664a.1.1,0,0,0-.087-.1l-1.667-.283a.526.526,0,0,1-.428-.392,6.374,6.374,0,0,0-.691-1.663.536.536,0,0,1,.024-.583l.98-1.377a.107.107,0,0,0-.012-.135l-1.183-1.184a.109.109,0,0,0-.076-.031.12.12,0,0,0-.059.02l-1.37.985a.536.536,0,0,1-.583.023,6.466,6.466,0,0,0-1.7-.7.537.537,0,0,1-.4-.433l-.278-1.655a.1.1,0,0,0-.1-.087h-1.671a.1.1,0,0,0-.1.087l-.285,1.679a.545.545,0,0,1-.393.428,6.3,6.3,0,0,0-1.659.7.543.543,0,0,1-.588-.023l-1.369-.976a.1.1,0,0,0-.06-.02.1.1,0,0,0-.075.031l-1.184,1.183a.109.109,0,0,0-.012.135l.988,1.39a.53.53,0,0,1,.028.58,6.353,6.353,0,0,0-.679,1.667.537.537,0,0,1-.433.4l-1.655.278a.1.1,0,0,0-.087.1v1.671a.1.1,0,0,0,.087.1l1.679.285a.545.545,0,0,1,.428.393,6.3,6.3,0,0,0,.7,1.659.545.545,0,0,1-.023.588l-.977,1.369a.107.107,0,0,0,.012.135l1.183,1.183a.11.11,0,0,0,.076.032.12.12,0,0,0,.059-.02l1.39-.988a.523.523,0,0,1,.31-.1A.552.552,0,0,1,1010.264,43.087ZM1009.4,37.5a4.1,4.1,0,1,1,4.1,4.1A4.1,4.1,0,0,1,1009.4,37.5Zm1.071,0a3.029,3.029,0,1,0,3.029-3.028A3.031,3.031,0,0,0,1010.473,37.5Z" transform="translate(-1003.999 -28)"/></svg>