<svg xmlns="http://www.w3.org/2000/svg" width="12.103" height="15" viewBox="0 0 12.103 15"><defs><style>.a{fill:#768696;}</style></defs><g transform="translate(-3.215)"><g transform="translate(3.215)"><g transform="translate(4.455 6.503)"><path class="a" d="M16.312,16.581h0a.166.166,0,0,1-.166-.166V12.673a.166.166,0,0,1,.166-.166h0a.166.166,0,0,1,.166.166v3.742A.166.166,0,0,1,16.312,16.581Z" transform="translate(-14.715 -12.507)"/><path class="a" d="M14.861,14.269a.167.167,0,0,1-.117-.048L13.43,12.907l-1.313,1.313a.166.166,0,1,1-.235-.235l1.431-1.431a.166.166,0,0,1,.235,0l1.431,1.431a.166.166,0,0,1-.117.283Z" transform="translate(-11.834 -12.507)"/></g><path class="a" d="M14.192,15H4.341a1.128,1.128,0,0,1-1.126-1.126V1.126A1.128,1.128,0,0,1,4.341,0h7.153a.225.225,0,1,1,0,.451H4.341a.677.677,0,0,0-.676.676V13.874a.677.677,0,0,0,.676.676h9.85a.677.677,0,0,0,.676-.676V3.922a.225.225,0,0,1,.451,0v9.953A1.127,1.127,0,0,1,14.192,15Z" transform="translate(-3.215)"/><path class="a" d="M23.907,3.2H21.258a.166.166,0,0,1-.166-.166V.383a.166.166,0,0,1,.332,0V2.866h2.483a.166.166,0,0,1,0,.332Z" transform="translate(-11.97 -0.145)"/><path class="a" d="M23.908,3.054A.166.166,0,0,1,23.789,3L21.14.283a.166.166,0,1,1,.238-.231l2.649,2.721a.166.166,0,0,1-.119.281Z" transform="translate(-11.971 -0.001)"/></g></g></svg>