<svg xmlns="http://www.w3.org/2000/svg" width="33.172" height="41.112" viewBox="0 0 33.172 41.112"><defs><style>.a{fill:#90a9fb;}</style></defs><g transform="translate(-3.215)"><g transform="translate(3.215)"><g transform="translate(10.643 15.444)"><path class="a" d="M16.763,27.67h0a.618.618,0,0,1-.617-.617V13.124a.618.618,0,0,1,.617-.617h0a.618.618,0,0,1,.617.617V27.052A.618.618,0,0,1,16.763,27.67Z" transform="translate(-10.821 -12.507)"/><path class="a" d="M23.1,19.067a.62.62,0,0,1-.437-.18L17.776,14l-4.889,4.889a.617.617,0,0,1-.873-.873l5.326-5.326a.618.618,0,0,1,.873,0l5.326,5.326a.617.617,0,0,1-.437,1.053Z" transform="translate(-11.834 -12.507)"/></g><path class="a" d="M33.3,41.112H6.3a3.091,3.091,0,0,1-3.087-3.087V3.087A3.091,3.091,0,0,1,6.3,0H25.908a.617.617,0,0,1,0,1.235H6.3A1.855,1.855,0,0,0,4.45,3.087V38.025A1.855,1.855,0,0,0,6.3,39.877h27a1.855,1.855,0,0,0,1.852-1.852V10.748a.617.617,0,1,1,1.235,0V38.026A3.09,3.09,0,0,1,33.3,41.112Z" transform="translate(-3.215)"/><path class="a" d="M31.571,11.315H21.709a.618.618,0,0,1-.617-.617V.834a.617.617,0,1,1,1.235,0v9.244h9.244a.618.618,0,0,1,0,1.236Z" transform="translate(0.984 0.051)"/><path class="a" d="M31.571,11.365a.618.618,0,0,1-.442-.186L21.267,1.049a.617.617,0,0,1,.885-.861l9.862,10.13a.617.617,0,0,1-.443,1.047Z" transform="translate(0.984 0)"/></g></g></svg>