<svg xmlns="http://www.w3.org/2000/svg" width="21.665" height="13.812" viewBox="0 0 21.665 13.812"><defs><style>.a{fill:#333233;stroke:#333233;stroke-width:0.2px;}</style></defs><g transform="translate(0.135 -12.544)"><path class="a" d="M18.455,16.223a10.272,10.272,0,0,0-15.585,0L0,19.41l2.941,3.267a10.456,10.456,0,0,0,7.792,3.579,10.455,10.455,0,0,0,7.792-3.579L21.4,19.49Zm-.44,5.886a9.6,9.6,0,0,1-14.562,0l-2.43-2.7,2.359-2.62a9.6,9.6,0,0,1,14.562,0l2.43,2.7Z"/><path class="a" d="M24.1,21.57a2.533,2.533,0,0,0-2.53,2.53.361.361,0,0,0,.723,0A1.809,1.809,0,0,1,24.1,22.293a.361.361,0,0,0,0-.723Z" transform="translate(-13.776 -5.233)"/><path class="a" d="M21.27,16.57c-2.591,0-4.7,2.412-4.7,5.376s2.108,5.376,4.7,5.376,4.7-2.412,4.7-5.376S23.861,16.57,21.27,16.57Zm0,9.925a4.3,4.3,0,0,1-3.976-4.549A4.3,4.3,0,0,1,21.27,17.4a4.3,4.3,0,0,1,3.976,4.549A4.3,4.3,0,0,1,21.27,26.5Z" transform="translate(-10.583 -2.507)"/></g></svg>